<?xml version="1.0" standalone="no"?>
<!DOCTYPE svg PUBLIC "-//W3C//DTD SVG 20010904//EN"
 "http://www.w3.org/TR/2001/REC-SVG-20010904/DTD/svg10.dtd">
<svg version="1.0" xmlns="http://www.w3.org/2000/svg"
 width="900.000000pt" height="500.000000pt" viewBox="0 0 900.000000 500.000000"
 preserveAspectRatio="xMidYMid meet">

<g transform="translate(0.000000,500.000000) scale(0.100000,-0.100000)"
fill="#FFFFFF" stroke="none">
<path d="M1365 4340 c-351 -30 -673 -157 -868 -341 l-57 -55 0 -1572 c0 -865
2 -1572 3 -1572 5 0 185 -63 286 -99 46 -17 87 -28 92 -25 5 3 9 307 9 695 0
379 3 689 8 689 4 0 55 -24 112 -54 293 -149 574 -188 840 -115 86 23 219 87
276 132 149 118 280 304 348 494 115 324 114 787 -3 1140 -125 380 -362 615
-676 672 -83 15 -262 20 -370 11z m260 -280 c93 -39 126 -61 186 -120 97 -95
166 -249 198 -440 28 -164 31 -209 31 -402 0 -418 -72 -666 -239 -821 -165
-152 -425 -180 -691 -75 -51 20 -215 102 -260 130 -20 13 -20 25 -20 785 l0
771 31 27 c44 36 108 67 214 103 95 31 161 49 210 56 62 9 310 -1 340 -14z"/>
<path d="M3220 4314 c-36 -12 -114 -40 -175 -61 l-110 -39 -3 -849 c-3 -941
-3 -940 61 -1077 43 -94 116 -181 214 -255 97 -73 183 -114 292 -142 159 -40
481 -22 711 38 60 16 144 42 165 51 50 21 156 60 165 60 23 0 8 -396 -21 -550
-37 -196 -133 -316 -334 -418 -105 -52 -290 -100 -527 -134 -67 -9 -88 -16
-88 -28 0 -16 6 -39 37 -155 l19 -70 54 -3 c160 -10 494 68 690 161 308 147
452 328 509 642 48 267 53 423 49 1670 l-3 1130 -195 0 -195 0 -3 -967 -2
-967 -53 -34 c-182 -117 -374 -177 -560 -177 -299 1 -513 150 -573 398 -11 46
-13 230 -14 930 l0 872 -22 -1 c-13 -1 -52 -12 -88 -25z"/>
<path d="M6895 4285 c-7 -5 -20 -35 -29 -65 -10 -30 -28 -93 -43 -140 -14 -47
-35 -119 -48 -160 -13 -41 -33 -109 -45 -150 -13 -41 -33 -106 -45 -145 -12
-38 -32 -106 -45 -150 -12 -44 -28 -98 -35 -120 -7 -22 -27 -87 -45 -145 -17
-58 -42 -139 -55 -180 -13 -41 -33 -109 -45 -150 -32 -108 -67 -222 -100 -327
-17 -50 -30 -100 -30 -112 0 -11 -4 -22 -9 -26 -5 -3 -12 -20 -16 -38 -3 -17
-18 -68 -31 -112 -14 -44 -34 -109 -44 -145 -11 -36 -33 -109 -50 -163 -16
-53 -30 -104 -30 -113 0 -9 -5 -14 -11 -12 -13 4 -17 16 -134 398 -13 41 -27
90 -30 107 -4 18 -11 35 -16 38 -5 4 -9 15 -9 25 0 11 -14 64 -30 117 -30 95
-46 148 -97 318 -13 44 -28 94 -34 110 -6 17 -15 48 -20 70 -6 22 -18 65 -28
95 -11 30 -31 96 -46 145 -14 50 -37 124 -51 165 -13 41 -24 84 -24 96 0 11
-4 24 -9 30 -5 5 -16 36 -26 69 -9 33 -25 87 -35 120 -10 33 -32 105 -48 160
-17 55 -50 163 -74 240 l-44 140 -127 3 c-70 1 -127 0 -127 -3 0 -6 9 -37 60
-205 16 -52 45 -149 65 -215 48 -160 75 -251 130 -430 25 -82 57 -188 71 -235
13 -47 33 -112 44 -145 10 -33 31 -100 46 -150 14 -49 37 -124 50 -165 12 -41
32 -106 44 -145 11 -38 29 -97 39 -130 11 -33 31 -100 46 -150 14 -49 36 -124
49 -165 13 -41 33 -106 44 -145 12 -38 33 -106 47 -150 14 -44 25 -87 25 -95
0 -20 47 -109 73 -137 37 -41 106 -68 172 -68 108 0 187 61 229 175 33 89 76
232 76 251 0 8 4 19 8 25 4 5 15 34 24 64 9 30 28 93 42 140 15 47 26 91 26
98 0 7 4 20 10 30 5 9 23 64 40 122 16 58 42 143 56 190 15 47 32 105 40 130
7 25 27 90 44 145 16 55 39 129 50 165 37 126 71 236 95 315 14 44 34 112 46
150 11 39 27 90 35 115 9 25 22 69 29 98 7 30 20 75 29 100 8 26 23 74 32 107
10 33 22 64 26 70 4 5 8 17 8 27 0 11 11 54 24 96 13 42 27 89 30 104 l6 27
-117 3 c-67 2 -121 -1 -128 -7z"/>
<path d="M7690 4269 c-30 -5 -73 -18 -96 -29 -22 -11 -43 -20 -47 -20 -12 0
-88 -51 -138 -92 -46 -37 -149 -177 -149 -201 0 -7 -7 -23 -16 -35 -36 -51
-44 -145 -44 -509 l0 -353 120 0 119 0 3 353 c3 350 3 352 28 412 35 84 133
182 215 214 84 33 161 38 232 16 105 -33 171 -78 218 -150 72 -108 69 -93 73
-487 l3 -358 120 0 120 0 -3 388 -3 387 -28 70 c-26 64 -82 155 -132 213 -53
62 -174 136 -275 168 -57 18 -247 26 -320 13z"/>
<path d="M7736 2795 c-141 -24 -244 -74 -342 -168 -78 -74 -115 -129 -161
-242 -26 -66 -28 -79 -28 -215 1 -135 3 -150 28 -212 47 -112 78 -160 154
-234 85 -84 174 -133 292 -163 78 -19 112 -21 428 -21 l343 0 0 125 0 125
-329 0 c-215 0 -348 4 -383 12 -80 17 -178 86 -226 158 -79 118 -91 242 -33
363 39 82 61 109 128 159 87 64 114 68 488 68 182 0 336 4 343 8 9 7 12 39 10
128 l-3 119 -315 2 c-222 1 -338 -3 -394 -12z"/>
</g>
</svg>
